Coordinates
version=1
nRows=16
nColumns=32
inDegrees=yes

Units are S.I. units (second, meters, Newtons, ...)
If the header above contains a line with 'inDegrees', this indicates whether rotational values are in degrees (yes) or radians (no).

endheader
time	pelvis_tilt	pelvis_list	pelvis_rotation	pelvis_tx	pelvis_ty	pelvis_tz	hip_flexion_r	hip_adduction_r	hip_rotation_r	knee_angle_r	ankle_angle_r	subtalar_angle_r	mtp_angle_r	hip_flexion_l	hip_adduction_l	hip_rotation_l	knee_angle_l	ankle_angle_l	subtalar_angle_l	mtp_angle_l	lumbar_extension	lumbar_bending	lumbar_rotation	arm_flex_r	arm_add_r	arm_rot_r	elbow_flex_r	arm_flex_l	arm_add_l	arm_rot_l	elbow_flex_l
      7.22000000	     -1.14691327	     -1.58824083	    -87.66529160	     -0.05122949	      1.00159062	      1.33692214	      6.11796943	      5.69677495	     -4.39308527	    -14.13150337	      1.41859621	    -16.47429700	      0.00000000	     17.88677057	     -5.43395323	    -11.72832499	    -34.29653539	     13.12519730	     -3.23836722	      0.00000000	     -8.99695949	      2.72879275	      4.58148208	      0.00000000	      0.00000000	      0.00000000	      0.00000000	      0.00000000	      0.00000000	      0.00000000	      0.00000000
      7.23000000	     -1.21152866	     -1.51228471	    -87.76918494	     -0.05168570	      1.00167183	      1.34213998	      5.63804433	      5.80857110	     -4.38957456	    -13.67799566	      1.52386354	    -16.43210118	      0.00000000	     18.57862534	     -5.39508138	    -11.69020794	    -32.98939736	     12.90659605	     -3.18177411	      0.00000000	     -9.06620417	      2.80192025	      4.85846815	      0.00000000	      0.00000000	      0.00000000	      0.00000000	      0.00000000	      0.00000000	      0.00000000	      0.00000000
      7.24000000	     -1.29052666	     -1.46378775	    -87.81946055	     -0.05217291	      1.00169490	      1.34728387	      5.17323947	      5.94067084	     -4.37931332	    -13.31736741	      1.65052164	    -16.36808560	      0.00000000	     19.26303716	     -5.37695085	    -11.64903579	    -31.69471956	     12.70877039	     -3.04734782	      0.00000000	     -9.16883140	      2.86269142	      5.09203533	      0.00000000	      0.00000000	      0.00000000	      0.00000000	      0.00000000	      0.00000000	      0.00000000	      0.00000000
      7.25000000	     -1.39258653	     -1.41619296	    -87.90726909	     -0.05243512	      1.00158060	      1.35246494	      4.72049123	      6.07760058	     -4.36377067	    -12.98072404	      1.79837503	    -16.29233803	      0.00000000	     19.90459606	     -5.35072984	    -11.54729052	    -30.39075579	     12.44391237	     -2.78132215	      0.00000000	     -9.27124681	      2.97530426	      5.30673909	      0.00000000	      0.00000000	      0.00000000	      0.00000000	      0.00000000	      0.00000000	      0.00000000	      0.00000000
      7.26000000	     -1.49387690	     -1.38349844	    -87.99833293	     -0.05259471	      1.00138117	      1.35769644	      4.27285251	      6.19817707	     -4.34208513	    -12.68914653	      1.95222079	    -16.20127765	      0.00000000	     20.51516696	     -5.32565075	    -11.41118875	    -29.14428322	     12.06021824	     -2.36263925	      0.00000000	     -9.38604880	      3.08801368	      5.50960873	      0.00000000	      0.00000000	      0.00000000	      0.00000000	      0.00000000	      0.00000000	      0.00000000	      0.00000000
      7.27000000	     -1.34617037	     -1.65657735	    -88.13707209	     -0.05290822	      1.00178291	      1.36302506	      3.48622889	      6.05864826	     -4.39497442	    -12.40960530	      2.37545727	    -15.59401881	      0.00000000	     20.68210537	     -5.13045598	    -11.58212341	    -27.87273919	     11.16564529	     -0.80215076	      0.00000000	     -9.87078610	      2.87945511	      5.60562993	      0.00000000	      0.00000000	      0.00000000	      0.00000000	      0.00000000	      0.00000000	      0.00000000	      0.00000000
      7.28000000	     -1.54486005	     -1.63451546	    -88.22099340	     -0.05300441	      1.00132554	      1.36841056	      3.09999320	      6.28025616	     -4.38338459	    -12.26730804	      2.57792961	    -15.55566326	      0.00000000	     21.25500193	     -5.24112248	    -11.50762025	    -26.73448104	     10.87034622	     -0.53474650	      0.00000000	     -9.96637312	      3.09701976	      5.82532700	      0.00000000	      0.00000000	      0.00000000	      0.00000000	      0.00000000	      0.00000000	      0.00000000	      0.00000000
      7.29000000	     -1.66289847	     -1.66351682	    -88.36232210	     -0.05330628	      1.00099484	      1.37381412	      2.61548568	      6.43878335	     -4.18235476	    -12.05784907	      2.93689211	    -15.27656666	      0.00000000	     21.74735715	     -5.33254784	    -11.54254505	    -25.70578832	      9.80231770	      0.22064904	      0.00000000	    -10.12818842	      3.18537306	      6.09056030	      0.00000000	      0.00000000	      0.00000000	      0.00000000	      0.00000000	      0.00000000	      0.00000000	      0.00000000
      7.30000000	     -1.81416580	     -1.67511428	    -88.54074277	     -0.05357968	      1.00057236	      1.37946727	      2.20384671	      6.62595527	     -4.09120550	    -12.00324850	      3.28670938	    -15.07769811	      0.00000000	     22.14424425	     -5.47254529	    -11.72756818	    -24.58983475	      9.04087048	      0.67742092	      0.00000000	    -10.23866095	      3.31104593	      6.27777367	      0.00000000	      0.00000000	      0.00000000	      0.00000000	      0.00000000	      0.00000000	      0.00000000	      0.00000000
      7.31000000	     -2.00264337	     -1.66120624	    -88.64466105	     -0.05361797	      0.99997290	      1.38510404	      1.84671034	      6.82482987	     -4.09842441	    -11.98482275	      3.50911697	    -15.06184581	      0.00000000	     22.59144240	     -5.63519375	    -11.85723545	    -23.58206240	      8.73057006	      0.82026351	      0.00000000	    -10.27875070	      3.49115079	      6.33360802	      0.00000000	      0.00000000	      0.00000000	      0.00000000	      0.00000000	      0.00000000	      0.00000000	      0.00000000
      7.32000000	     -2.10457693	     -1.68745183	    -88.85889456	     -0.05404201	      0.99951108	      1.39094867	      1.33863859	      6.97101441	     -3.84085630	    -11.77652889	      3.95695149	    -14.82395578	      0.00000000	     22.91982536	     -5.77174887	    -12.08906615	    -22.65465696	      7.84266635	      1.06967488	      0.00000000	    -10.35740286	      3.51986559	      6.57935405	      0.00000000	      0.00000000	      0.00000000	      0.00000000	      0.00000000	      0.00000000	      0.00000000	      0.00000000
      7.33000000	     -2.28326510	     -1.67588490	    -88.97251996	     -0.05410429	      0.99885684	      1.39693873	      0.96929365	      7.15982190	     -3.86249831	    -11.79176549	      4.16011263	    -14.80842204	      0.00000000	     23.24698929	     -5.93048637	    -12.26578803	    -21.73094829	      7.65344719	      1.08218613	      0.00000000	    -10.34235879	      3.67320822	      6.61559946	      0.00000000	      0.00000000	      0.00000000	      0.00000000	      0.00000000	      0.00000000	      0.00000000	      0.00000000
      7.34000000	     -2.34890308	     -1.77748078	    -89.24353288	     -0.05464642	      0.99848746	      1.40302324	      0.37807976	      7.25930476	     -3.48773660	    -11.62997166	      4.61663418	    -14.48079808	      0.00000000	     23.36608438	     -6.04872207	    -12.53236530	    -20.87752123	      6.82257252	      0.94523579	      0.00000000	    -10.46228961	      3.62938943	      6.91920094	      0.00000000	      0.00000000	      0.00000000	      0.00000000	      0.00000000	      0.00000000	      0.00000000	      0.00000000
      7.35000000	     -2.52168137	     -1.76506501	    -89.37614713	     -0.05475519	      0.99779578	      1.40924422	      0.00133788	      7.44199663	     -3.54777361	    -11.65042573	      4.82441468	    -14.47280340	      0.00000000	     23.59449344	     -6.19689732	    -12.67108484	    -20.06530297	      6.66428506	      0.88704378	      0.00000000	    -10.39402751	      3.76075939	      6.93843034	      0.00000000	      0.00000000	      0.00000000	      0.00000000	      0.00000000	      0.00000000	      0.00000000	      0.00000000
      7.36000000	     -2.69657681	     -1.75068124	    -89.52374237	     -0.05490325	      0.99709557	      1.41553468	     -0.43729143	      7.63059771	     -3.48213702	    -11.54163125	      5.12125653	    -14.40121576	      0.00000000	     23.77086830	     -6.33950729	    -12.79527450	    -19.27829827	      6.37540185	      0.77205873	      0.00000000	    -10.31067125	      3.88860142	      7.02137674	      0.00000000	      0.00000000	      0.00000000	      0.00000000	      0.00000000	      0.00000000	      0.00000000	      0.00000000
      7.37000000	     -2.55668568	     -2.16853185	    -89.97234852	     -0.05535829	      0.99730645	      1.42183520	     -1.29706761	      7.44762904	     -3.12383689	    -11.59187744	      5.89798868	    -13.61842249	      0.00000000	     23.19754396	     -6.19392741	    -13.13302590	    -18.23472654	      5.48079423	     -0.42317195	      0.00000000	    -10.77005123	      3.59742682	      7.41310904	      0.00000000	      0.00000000	      0.00000000	      0.00000000	      0.00000000	      0.00000000	      0.00000000	      0.00000000
